<svg width="761" height="429" viewBox="0 0 761 429" fill="none" xmlns="http://www.w3.org/2000/svg">
<g filter="url(#filter0_d_1088_2108)">
<path fill-rule="evenodd" clip-rule="evenodd" d="M97.5029 30.123L34.0823 81.2369V114.657L57.5714 131.368V198.209L37.6059 213.936L37.6495 254.856L28.9297 262.783V299.248L37.6059 306.638V350.567L93.9797 398.732H202.029L218.472 383.659L394.641 383.223L408.732 396.986H711.745L734.06 379.292L732.882 311.25L714.091 296.506V246.128L722.946 238.209V200.555L714.091 192.668V146.112L734.06 130.385L735.233 64.5266L711.745 47.8163H319.475L304.207 30.7097L97.5029 30.123Z" stroke="#800785" stroke-width="1.58542"/>
</g>
<path fill-rule="evenodd" clip-rule="evenodd" d="M603.783 39.2382H607.22L589.475 21.0059H586.038L603.783 39.2382ZM595.931 39.2382H599.368L581.619 21.0059H578.183L595.931 39.2382ZM588.076 39.2382H591.512L573.767 21.0059H570.331L588.076 39.2382ZM580.224 39.2382H583.66L565.915 21.0059H562.479L580.224 39.2382ZM572.368 39.2382H575.804L558.06 21.0059H554.623L572.368 39.2382ZM564.516 39.2382H567.953L550.204 21.0059H546.768L564.516 39.2382ZM556.661 39.2382H560.097L542.352 21.0059H538.916L556.661 39.2382ZM548.805 39.2382H552.241L534.496 21.0059H531.06L548.805 39.2382ZM540.949 39.2382H544.385L526.641 21.0059H523.204L540.949 39.2382ZM533.093 39.2382H536.53L518.785 21.0059H515.349L533.093 39.2382ZM525.242 39.2382H528.678L510.933 21.0059H507.493L525.242 39.2382ZM517.386 39.2382H520.822L503.077 21.0059H499.641L517.386 39.2382ZM509.53 39.2382H512.966L495.222 21.0059H491.785L509.53 39.2382ZM501.674 39.2382H505.111L487.366 21.0059H483.93L501.674 39.2382ZM493.823 39.2382H497.259L479.51 21.0059H476.074L493.823 39.2382ZM485.967 39.2382H489.403L471.658 21.0059H468.222L485.967 39.2382ZM478.111 39.2382H481.547L463.803 21.0059H460.366L478.111 39.2382ZM470.255 39.2382H473.692L455.947 21.0059H452.511L470.255 39.2382ZM706.011 39.2382H709.447L691.698 21.0059H688.262L706.011 39.2382ZM698.155 39.2382H701.591L683.847 21.0059H680.41L698.155 39.2382ZM690.299 39.2382H693.736L675.991 21.0059H672.555L690.299 39.2382ZM682.444 39.2382H685.88L668.135 21.0059H664.699L682.444 39.2382ZM674.592 39.2382H678.028L660.279 21.0059H656.843L674.592 39.2382ZM666.736 39.2382H670.172L652.428 21.0059H648.991L666.736 39.2382ZM658.88 39.2382H662.317L644.572 21.0059H641.136L658.88 39.2382ZM651.025 39.2382H654.461L636.716 21.0059H633.28L651.025 39.2382ZM643.173 39.2382H646.609L628.86 21.0059H625.424L643.173 39.2382ZM635.317 39.2382H638.753L621.009 21.0059H617.572L635.317 39.2382ZM627.461 39.2382H630.898L613.153 21.0059H609.717L627.461 39.2382ZM619.606 39.2382H623.042L605.297 21.0059H601.861L619.606 39.2382ZM611.75 39.2382H615.186L597.441 21.0059H594.005L611.75 39.2382ZM462.011 39.2382H465.448L447.703 21.0059H444.266L462.011 39.2382ZM454.155 39.2382H457.592L439.847 21.0059H436.411L454.155 39.2382ZM446.304 39.2382H449.74L431.991 21.0059H428.555L446.304 39.2382ZM438.452 39.2382H441.888L424.144 21.0059H420.707L438.452 39.2382ZM430.596 39.2382H434.033L416.288 21.0059H412.851L430.596 39.2382ZM422.74 39.2382H426.177L408.432 21.0059H404.996L422.74 39.2382ZM414.889 39.2382H418.325L400.576 21.0059H397.14L414.889 39.2382ZM407.033 39.2382H410.469L392.723 21.0059H389.287L407.033 39.2382ZM399.177 39.2382H402.614L384.868 21.0059H381.432L399.177 39.2382ZM391.321 39.2382H394.758L377.013 21.0059H373.577L391.321 39.2382ZM383.467 39.2382H386.903L369.159 21.0059H365.722L383.467 39.2382ZM375.612 39.2382H379.048L361.304 21.0059H357.869L375.612 39.2382ZM367.757 39.2382H371.194L353.449 21.0059H350.013L367.757 39.2382ZM359.902 39.2382H363.339L345.594 21.0059H342.158L359.902 39.2382ZM352.047 39.2382H355.484L337.739 21.0059H334.303L352.047 39.2382ZM344.195 39.2382H347.632L329.887 21.0059H326.45L344.195 39.2382ZM336.34 39.2382H339.777L322.03 21.0059H318.593L336.34 39.2382ZM328.485 39.2382H331.922L314.175 21.0059H310.738L328.485 39.2382Z" fill="#800785"/>
<path fill-rule="evenodd" clip-rule="evenodd" d="M397.579 407.848H401.016L383.27 389.615H379.833L397.579 407.848ZM389.724 407.848H393.16L375.415 389.615H371.979L389.724 407.848ZM381.869 407.848H385.306L367.56 389.615H364.123L381.869 407.848ZM373.625 407.848H377.061L359.316 389.615H355.879L373.625 407.848ZM365.77 407.848H369.204L351.458 389.615H348.022L365.77 407.848ZM357.915 407.848H361.352L343.606 389.615H340.17L357.915 407.848ZM350.064 407.848H353.501L335.756 389.615H332.319L350.064 407.848ZM342.21 407.848H345.646L327.901 389.615H324.464L342.21 407.848ZM334.355 407.848H337.791L320.046 389.615H316.608L334.355 407.848ZM326.5 407.848H329.936L312.191 389.615H308.755L326.5 407.848ZM318.645 407.848H322.082L304.336 389.615H300.9L318.645 407.848ZM310.79 407.848H314.227L296.481 389.615H293.045L310.79 407.848ZM302.936 407.848H306.372L288.626 389.615H285.189L302.936 407.848ZM295.081 407.848H298.517L280.772 389.615H277.335L295.081 407.848ZM287.226 407.848H290.662L272.917 389.615H269.482L287.226 407.848ZM279.371 407.848H282.808L265.062 389.615H261.625L279.371 407.848ZM271.517 407.848H274.953L257.207 389.615H253.77L271.517 407.848ZM263.662 407.848H267.098L249.352 389.615H245.916L263.662 407.848ZM255.807 407.848H259.243L241.498 389.615H238.061L255.807 407.848ZM247.952 407.848H251.388L233.643 389.615H230.207L247.952 407.848ZM240.097 407.848H243.534L225.788 389.615H222.352L240.097 407.848Z" fill="#800785"/>
<g filter="url(#filter1_d_1088_2108)">
<path fill-rule="evenodd" clip-rule="evenodd" d="M717.902 404.051L737.914 403.988L738.108 387.311L717.902 404.051Z" stroke="#800785" stroke-width="1.58542"/>
</g>
<g filter="url(#filter2_d_1088_2108)">
<path fill-rule="evenodd" clip-rule="evenodd" d="M83.9892 28.2127L30.7617 28.1426L30.1172 68.233L83.9892 28.2127Z" stroke="#C827D7" stroke-width="1.58542"/>
</g>
<path fill-rule="evenodd" clip-rule="evenodd" d="M684.129 130.326H690.435V134.216H684.129V130.326ZM684.129 146.849H690.435V150.726H684.129V146.849ZM684.129 163.373H690.435V167.249H684.129V163.373ZM684.129 179.895H690.435V183.797H684.129V179.895ZM684.129 196.431H690.435V200.32H684.129V196.431ZM684.129 212.954H690.435V216.855H684.129V212.954ZM684.129 229.502H690.435V233.379H684.129V229.502Z" fill="white"/>
<path fill-rule="evenodd" clip-rule="evenodd" d="M174.789 388.031H179.682V392.788H174.789V388.031Z" fill="white"/>
<path opacity="0.6" fill-rule="evenodd" clip-rule="evenodd" d="M181.531 388.031H186.424V392.788H181.531V388.031Z" fill="white"/>
<path opacity="0.6" fill-rule="evenodd" clip-rule="evenodd" d="M189.062 388.031H193.942V392.788H189.062V388.031Z" fill="white"/>
<path opacity="0.4" fill-rule="evenodd" clip-rule="evenodd" d="M195.797 388.031H200.689V392.788H195.797V388.031Z" fill="white"/>
<path fill-rule="evenodd" clip-rule="evenodd" d="M685.297 255.252H690.449V256.441H685.297V255.252ZM685.297 264.764H690.449V265.954H685.297V264.764ZM685.297 274.277H690.449V275.466H685.297V274.277ZM685.297 284.186H690.449V285.375H685.297V284.186ZM685.297 293.698H690.449V294.887H685.297V293.698ZM685.297 303.211H690.449V304.4H685.297V303.211ZM685.297 312.723H690.449V313.912H685.297V312.723ZM685.297 322.236H690.449V323.425H685.297V322.236ZM685.297 331.748H690.449V332.937H685.297V331.748ZM685.297 341.657H690.449V342.846H685.297V341.657ZM685.693 351.17H690.846V352.359H685.693V351.17ZM685.693 360.682H690.846V361.871H685.693V360.682Z" fill="white"/>
<path d="M150 51H185.208L188.751 55.5363H203.366L207.572 51H236.802" stroke="white" stroke-width="0.792708"/>
<path fill-rule="evenodd" clip-rule="evenodd" d="M466.906 381.293L605.166 381.404L608.71 385.94H623.323L627.533 381.404H656.76" fill="black"/>
<path d="M466.906 381.293L605.166 381.404L608.71 385.94H623.323L627.533 381.404H656.76" stroke="black" stroke-width="0.792708"/>
<path fill-rule="evenodd" clip-rule="evenodd" d="M466.906 381.293L605.166 381.404L608.71 385.94H623.323L627.533 381.404H656.76" fill="white"/>
<path d="M466.906 381.293L605.166 381.404L608.71 385.94H623.323L627.533 381.404H656.76" stroke="white" stroke-width="0.792708"/>
<path fill-rule="evenodd" clip-rule="evenodd" d="M25.3594 301.049V259.403L35.0451 251.78L34.6729 229.404L42.7696 223.939L43.2056 255.584L33.4573 263.258V297.194L43.1751 304.844V334.531L35.076 329.196V308.696L25.3594 301.049Z" fill="#800785"/>
<path fill-rule="evenodd" clip-rule="evenodd" d="M727.321 199.158V240.799L717.634 248.421L718.006 270.795L709.909 276.258L709.469 244.618L719.219 236.945V203.012L709.504 195.365V165.682L717.602 171.014V191.511L727.321 199.158Z" fill="#800785"/>
<path fill-rule="evenodd" clip-rule="evenodd" d="M203.96 56.1288H186.699L183.539 52.2604L174.265 52.409L172 49.1748L185.116 49L188.297 52.8942H202.363L205.534 49.0127H217.838L215.628 52.2473H207.13L203.96 56.1288Z" fill="white"/>
<path fill-rule="evenodd" clip-rule="evenodd" d="M623.841 387.235H606.58L603.421 383.367L594.146 383.515L591.879 380.281L604.998 380.106L608.177 384.001H622.244L625.414 380.119H637.717L635.506 383.354H627.012L623.841 387.235Z" fill="white"/>
<path d="M553.802 69V59.7758H560.017V61.3837H555.752V63.5817H559.697V65.1896H555.752V67.3921H560.035V69H553.802ZM565.842 63.6267V65.1491H561.635V63.6267H565.842ZM572.517 62.4286C572.481 62.0653 572.326 61.7831 572.053 61.5819C571.78 61.3807 571.409 61.2801 570.941 61.2801C570.622 61.2801 570.354 61.3251 570.134 61.4152C569.915 61.5023 569.747 61.6239 569.63 61.78C569.516 61.9362 569.459 62.1133 569.459 62.3115C569.453 62.4767 569.487 62.6208 569.562 62.7439C569.64 62.867 569.747 62.9736 569.882 63.0637C570.017 63.1508 570.173 63.2273 570.351 63.2934C570.528 63.3565 570.717 63.4105 570.918 63.4555L571.747 63.6537C572.149 63.7438 572.519 63.8639 572.855 64.014C573.191 64.1642 573.482 64.3488 573.729 64.568C573.975 64.7872 574.166 65.0455 574.301 65.3427C574.439 65.64 574.509 65.9808 574.512 66.3651C574.509 66.9296 574.365 67.4191 574.08 67.8335C573.798 68.2448 573.389 68.5646 572.855 68.7928C572.323 69.018 571.682 69.1306 570.932 69.1306C570.187 69.1306 569.538 69.0165 568.986 68.7883C568.436 68.5601 568.007 68.2223 567.698 67.7749C567.391 67.3245 567.231 66.7675 567.216 66.1039H569.103C569.124 66.4132 569.213 66.6714 569.369 66.8786C569.528 67.0828 569.74 67.2374 570.004 67.3425C570.271 67.4446 570.573 67.4957 570.909 67.4957C571.239 67.4957 571.526 67.4476 571.769 67.3515C572.016 67.2554 572.206 67.1218 572.341 66.9507C572.477 66.7795 572.544 66.5828 572.544 66.3606C572.544 66.1535 572.483 65.9793 572.359 65.8382C572.239 65.697 572.062 65.5769 571.828 65.4779C571.597 65.3788 571.313 65.2887 570.977 65.2076L569.972 64.9554C569.195 64.7662 568.581 64.4705 568.13 64.0681C567.68 63.6657 567.456 63.1237 567.459 62.4421C567.456 61.8836 567.605 61.3957 567.905 60.9783C568.208 60.561 568.624 60.2352 569.153 60.001C569.681 59.7667 570.282 59.6496 570.954 59.6496C571.639 59.6496 572.236 59.7667 572.747 60.001C573.26 60.2352 573.66 60.561 573.945 60.9783C574.23 61.3957 574.377 61.8791 574.386 62.4286H572.517ZM581.522 59.7758H583.472V65.7661C583.472 66.4387 583.311 67.0272 582.99 67.5317C582.672 68.0361 582.226 68.4295 581.652 68.7117C581.079 68.991 580.411 69.1306 579.648 69.1306C578.882 69.1306 578.213 68.991 577.639 68.7117C577.066 68.4295 576.62 68.0361 576.302 67.5317C575.983 67.0272 575.824 66.4387 575.824 65.7661V59.7758H577.774V65.5995C577.774 65.9508 577.851 66.2631 578.004 66.5363C578.16 66.8095 578.379 67.0242 578.662 67.1804C578.944 67.3365 579.273 67.4146 579.648 67.4146C580.026 67.4146 580.355 67.3365 580.634 67.1804C580.917 67.0242 581.134 66.8095 581.288 66.5363C581.444 66.2631 581.522 65.9508 581.522 65.5995V59.7758ZM585.077 59.7758H587.482L590.022 65.9733H590.13L592.67 59.7758H595.075V69H593.184V62.9961H593.107L590.72 68.955H589.432L587.045 62.9736H586.968V69H585.077V59.7758ZM596.682 59.7758H599.087L601.628 65.9733H601.736L604.276 59.7758H606.681V69H604.79V62.9961H604.713L602.326 68.955H601.038L598.651 62.9736H598.574V69H596.682V59.7758ZM610.238 59.7758V69H608.288V59.7758H610.238ZM611.492 61.3837V59.7758H619.067V61.3837H616.243V69H614.316V61.3837H611.492ZM623.196 69V67.5947L626.48 64.5545C626.759 64.2843 626.993 64.0411 627.182 63.8249C627.375 63.6087 627.52 63.397 627.619 63.1898C627.718 62.9796 627.768 62.7529 627.768 62.5097C627.768 62.2395 627.706 62.0068 627.583 61.8116C627.46 61.6134 627.292 61.4618 627.079 61.3567C626.866 61.2486 626.624 61.1945 626.354 61.1945C626.071 61.1945 625.825 61.2516 625.615 61.3657C625.405 61.4798 625.243 61.6434 625.129 61.8566C625.014 62.0698 624.957 62.3235 624.957 62.6178H623.106C623.106 62.0143 623.243 61.4903 623.516 61.0459C623.789 60.6015 624.172 60.2577 624.665 60.0145C625.157 59.7713 625.725 59.6496 626.367 59.6496C627.028 59.6496 627.603 59.7667 628.092 60.001C628.585 60.2322 628.968 60.5535 629.241 60.9648C629.514 61.3762 629.651 61.8476 629.651 62.3791C629.651 62.7274 629.582 63.0712 629.443 63.4105C629.308 63.7498 629.067 64.1266 628.718 64.541C628.37 64.9524 627.879 65.4463 627.245 66.0228L625.899 67.3425V67.4056H629.772V69H623.196ZM634.595 69.1261C633.922 69.1261 633.323 69.0105 632.798 68.7793C632.275 68.5451 631.862 68.2238 631.559 67.8154C631.259 67.4041 631.104 66.9297 631.095 66.3922H633.059C633.071 66.6174 633.145 66.8155 633.28 66.9867C633.418 67.1549 633.601 67.2855 633.829 67.3786C634.057 67.4716 634.314 67.5182 634.599 67.5182C634.897 67.5182 635.159 67.4656 635.388 67.3605C635.616 67.2554 635.794 67.1098 635.924 66.9236C636.053 66.7375 636.117 66.5228 636.117 66.2796C636.117 66.0333 636.048 65.8157 635.91 65.6265C635.775 65.4343 635.58 65.2842 635.325 65.1761C635.072 65.068 634.772 65.0139 634.424 65.0139H633.563V63.5817H634.424C634.718 63.5817 634.978 63.5306 635.203 63.4285C635.431 63.3264 635.608 63.1853 635.734 63.0051C635.861 62.822 635.924 62.6088 635.924 62.3656C635.924 62.1344 635.868 61.9317 635.757 61.7575C635.649 61.5804 635.496 61.4422 635.298 61.3432C635.102 61.2441 634.874 61.1945 634.613 61.1945C634.349 61.1945 634.107 61.2426 633.888 61.3387C633.669 61.4317 633.493 61.5654 633.361 61.7395C633.229 61.9137 633.158 62.1178 633.149 62.3521H631.28C631.289 61.8206 631.441 61.3522 631.735 60.9468C632.029 60.5414 632.425 60.2247 632.924 59.9965C633.425 59.7652 633.991 59.6496 634.622 59.6496C635.259 59.6496 635.816 59.7652 636.293 59.9965C636.77 60.2277 637.141 60.5399 637.405 60.9333C637.673 61.3236 637.805 61.762 637.802 62.2485C637.805 62.7649 637.644 63.1958 637.32 63.5411C636.999 63.8864 636.58 64.1056 636.063 64.1987V64.2708C636.742 64.3579 637.258 64.5936 637.613 64.9779C637.97 65.3592 638.147 65.8367 638.144 66.4102C638.147 66.9357 637.995 67.4026 637.689 67.8109C637.386 68.2193 636.967 68.5406 636.433 68.7748C635.898 69.009 635.286 69.1261 634.595 69.1261ZM651.587 62.7574C651.524 62.5382 651.436 62.3446 651.322 62.1764C651.208 62.0052 651.068 61.8611 650.903 61.744C650.741 61.6239 650.555 61.5323 650.344 61.4693C650.137 61.4062 649.907 61.3747 649.655 61.3747C649.184 61.3747 648.769 61.4918 648.412 61.726C648.058 61.9602 647.782 62.301 647.583 62.7484C647.385 63.1928 647.286 63.7363 647.286 64.3789C647.286 65.0214 647.384 65.5679 647.579 66.0183C647.774 66.4687 648.05 66.8125 648.408 67.0498C648.765 67.284 649.187 67.4011 649.673 67.4011C650.115 67.4011 650.491 67.323 650.804 67.1669C651.119 67.0077 651.359 66.784 651.524 66.4958C651.693 66.2075 651.777 65.8667 651.777 65.4733L652.173 65.5319H649.795V64.0636H653.655V65.2256C653.655 66.0364 653.484 66.733 653.141 67.3155C652.799 67.895 652.328 68.3424 651.727 68.6577C651.127 68.97 650.439 69.1261 649.664 69.1261C648.799 69.1261 648.04 68.9354 647.385 68.5541C646.731 68.1698 646.22 67.6248 645.854 66.9191C645.491 66.2105 645.309 65.3698 645.309 64.3969C645.309 63.6492 645.417 62.9826 645.633 62.3971C645.852 61.8086 646.159 61.3101 646.552 60.9018C646.945 60.4934 647.403 60.1826 647.926 59.9694C648.448 59.7562 649.014 59.6496 649.624 59.6496C650.146 59.6496 650.633 59.7262 651.083 59.8793C651.533 60.0295 651.933 60.2427 652.281 60.5189C652.632 60.7952 652.919 61.124 653.141 61.5053C653.364 61.8836 653.506 62.301 653.569 62.7574H651.587ZM655.12 69V59.7758H657.07V67.3921H661.025V69H655.12ZM664.266 59.7758V69H662.316V59.7758H664.266ZM665.871 59.7758H668.276L670.816 65.9733H670.924L673.465 59.7758H675.87V69H673.978V62.9961H673.902L671.514 68.955H670.226L667.839 62.9736H667.763V69H665.871V59.7758ZM677.477 69V59.7758H681.116C681.815 59.7758 682.412 59.9094 682.904 60.1766C683.396 60.4409 683.772 60.8087 684.03 61.2801C684.291 61.7485 684.422 62.289 684.422 62.9016C684.422 63.5141 684.29 64.0546 684.025 64.523C683.761 64.9914 683.378 65.3562 682.877 65.6175C682.378 65.8787 681.775 66.0093 681.066 66.0093H678.747V64.4464H680.751C681.126 64.4464 681.436 64.3819 681.679 64.2528C681.925 64.1206 682.108 63.939 682.228 63.7078C682.351 63.4736 682.413 63.2048 682.413 62.9016C682.413 62.5953 682.351 62.328 682.228 62.0998C682.108 61.8686 681.925 61.69 681.679 61.5639C681.433 61.4347 681.12 61.3702 680.742 61.3702H679.427V69H677.477ZM690.693 62.4286C690.657 62.0653 690.502 61.7831 690.229 61.5819C689.955 61.3807 689.585 61.2801 689.116 61.2801C688.798 61.2801 688.529 61.3251 688.31 61.4152C688.091 61.5023 687.923 61.6239 687.805 61.78C687.691 61.9362 687.634 62.1133 687.634 62.3115C687.628 62.4767 687.663 62.6208 687.738 62.7439C687.816 62.867 687.923 62.9736 688.058 63.0637C688.193 63.1508 688.349 63.2273 688.526 63.2934C688.703 63.3565 688.892 63.4105 689.094 63.4555L689.922 63.6537C690.325 63.7438 690.694 63.8639 691.03 64.014C691.367 64.1642 691.658 64.3488 691.904 64.568C692.15 64.7872 692.341 65.0455 692.476 65.3427C692.614 65.64 692.685 65.9808 692.688 66.3651C692.685 66.9296 692.541 67.4191 692.255 67.8335C691.973 68.2448 691.565 68.5646 691.03 68.7928C690.499 69.018 689.858 69.1306 689.107 69.1306C688.362 69.1306 687.714 69.0165 687.161 68.7883C686.612 68.5601 686.183 68.2223 685.873 67.7749C685.567 67.3245 685.406 66.7675 685.391 66.1039H687.278C687.3 66.4132 687.388 66.6714 687.544 66.8786C687.703 67.0828 687.915 67.2374 688.179 67.3425C688.447 67.4446 688.748 67.4957 689.085 67.4957C689.415 67.4957 689.702 67.4476 689.945 67.3515C690.191 67.2554 690.382 67.1218 690.517 66.9507C690.652 66.7795 690.72 66.5828 690.72 66.3606C690.72 66.1535 690.658 65.9793 690.535 65.8382C690.415 65.697 690.238 65.5769 690.003 65.4779C689.772 65.3788 689.488 65.2887 689.152 65.2076L688.148 64.9554C687.37 64.7662 686.756 64.4705 686.306 64.0681C685.855 63.6657 685.632 63.1237 685.635 62.4421C685.632 61.8836 685.78 61.3957 686.08 60.9783C686.384 60.561 686.8 60.2352 687.328 60.001C687.857 59.7667 688.457 59.6496 689.13 59.6496C689.814 59.6496 690.412 59.7667 690.922 60.001C691.436 60.2352 691.835 60.561 692.12 60.9783C692.406 61.3957 692.553 61.8791 692.562 62.4286H690.693ZM694 69V59.7758H700.215V61.3837H695.95V63.5817H699.895V65.1896H695.95V67.3921H700.233V69H694ZM706.77 62.4286C706.734 62.0653 706.579 61.7831 706.306 61.5819C706.032 61.3807 705.662 61.2801 705.193 61.2801C704.875 61.2801 704.606 61.3251 704.387 61.4152C704.168 61.5023 704 61.6239 703.883 61.78C703.768 61.9362 703.711 62.1133 703.711 62.3115C703.705 62.4767 703.74 62.6208 703.815 62.7439C703.893 62.867 704 62.9736 704.135 63.0637C704.27 63.1508 704.426 63.2273 704.603 63.2934C704.78 63.3565 704.97 63.4105 705.171 63.4555L705.999 63.6537C706.402 63.7438 706.771 63.8639 707.107 64.014C707.444 64.1642 707.735 64.3488 707.981 64.568C708.227 64.7872 708.418 65.0455 708.553 65.3427C708.691 65.64 708.762 65.9808 708.765 66.3651C708.762 66.9296 708.618 67.4191 708.333 67.8335C708.05 68.2448 707.642 68.5646 707.107 68.7928C706.576 69.018 705.935 69.1306 705.184 69.1306C704.44 69.1306 703.791 69.0165 703.238 68.7883C702.689 68.5601 702.26 68.2223 701.95 67.7749C701.644 67.3245 701.483 66.7675 701.468 66.1039H703.356C703.377 66.4132 703.465 66.6714 703.621 66.8786C703.78 67.0828 703.992 67.2374 704.256 67.3425C704.524 67.4446 704.825 67.4957 705.162 67.4957C705.492 67.4957 705.779 67.4476 706.022 67.3515C706.268 67.2554 706.459 67.1218 706.594 66.9507C706.729 66.7795 706.797 66.5828 706.797 66.3606C706.797 66.1535 706.735 65.9793 706.612 65.8382C706.492 65.697 706.315 65.5769 706.081 65.4779C705.849 65.3788 705.566 65.2887 705.229 65.2076L704.225 64.9554C703.447 64.7662 702.833 64.4705 702.383 64.0681C701.932 63.6657 701.709 63.1237 701.712 62.4421C701.709 61.8836 701.857 61.3957 702.158 60.9783C702.461 60.561 702.877 60.2352 703.405 60.001C703.934 59.7667 704.534 59.6496 705.207 59.6496C705.891 59.6496 706.489 59.7667 706.999 60.001C707.513 60.2352 707.912 60.561 708.197 60.9783C708.483 61.3957 708.63 61.8791 708.639 62.4286H706.77Z" fill="white"/>
<path d="M98.9691 56V47.2442H101.323V48.7719H101.415C101.574 48.2284 101.842 47.818 102.218 47.5406C102.595 47.2594 103.028 47.1188 103.518 47.1188C103.64 47.1188 103.771 47.1264 103.911 47.1416C104.052 47.1568 104.175 47.1777 104.282 47.2043V49.359C104.168 49.3248 104.01 49.2944 103.809 49.2678C103.607 49.2412 103.423 49.2279 103.256 49.2279C102.899 49.2279 102.579 49.3058 102.298 49.4616C102.021 49.6136 101.8 49.8265 101.637 50.1001C101.477 50.3737 101.397 50.6891 101.397 51.0463V56H98.9691ZM109.12 56.171C108.219 56.171 107.444 55.9886 106.794 55.6238C106.148 55.2551 105.65 54.7345 105.301 54.0619C104.951 53.3854 104.776 52.5855 104.776 51.662C104.776 50.7613 104.951 49.9709 105.301 49.2906C105.65 48.6104 106.143 48.0802 106.777 47.7002C107.416 47.3202 108.164 47.1302 109.023 47.1302C109.601 47.1302 110.139 47.2233 110.636 47.4095C111.138 47.5919 111.575 47.8674 111.947 48.236C112.324 48.6047 112.616 49.0683 112.825 49.6269C113.034 50.1818 113.139 50.8316 113.139 51.5765V52.2434H105.745V50.7385H110.853C110.853 50.3889 110.777 50.0792 110.625 49.8094C110.473 49.5395 110.262 49.3286 109.992 49.1766C109.726 49.0208 109.416 48.9429 109.063 48.9429C108.694 48.9429 108.368 49.0284 108.083 49.1994C107.801 49.3666 107.581 49.5927 107.421 49.8778C107.262 50.159 107.18 50.4725 107.176 50.8183V52.2491C107.176 52.6824 107.256 53.0567 107.416 53.3721C107.579 53.6875 107.809 53.9308 108.105 54.1018C108.402 54.2728 108.753 54.3583 109.16 54.3583C109.43 54.3583 109.677 54.3203 109.901 54.2443C110.125 54.1683 110.317 54.0543 110.477 53.9023C110.636 53.7502 110.758 53.564 110.842 53.3436L113.088 53.4918C112.974 54.0315 112.74 54.5027 112.386 54.9055C112.037 55.3046 111.585 55.6162 111.03 55.8404C110.479 56.0608 109.842 56.171 109.12 56.171ZM118.68 56.171C117.783 56.171 117.011 55.981 116.365 55.601C115.723 55.2171 115.229 54.6851 114.883 54.0049C114.541 53.3246 114.37 52.5418 114.37 51.6563C114.37 50.7594 114.543 49.9728 114.889 49.2963C115.239 48.6161 115.734 48.0859 116.377 47.7059C117.019 47.3221 117.783 47.1302 118.668 47.1302C119.432 47.1302 120.101 47.2689 120.675 47.5463C121.249 47.8237 121.703 48.2132 122.037 48.7149C122.372 49.2165 122.556 49.8056 122.59 50.482H120.299C120.234 50.045 120.063 49.6935 119.786 49.4274C119.512 49.1576 119.153 49.0227 118.708 49.0227C118.332 49.0227 118.003 49.1253 117.722 49.3305C117.445 49.5319 117.228 49.8265 117.072 50.2141C116.916 50.6017 116.838 51.071 116.838 51.6221C116.838 52.1807 116.914 52.6558 117.066 53.0472C117.222 53.4386 117.441 53.7369 117.722 53.9422C118.003 54.1474 118.332 54.25 118.708 54.25C118.986 54.25 119.234 54.193 119.455 54.079C119.679 53.965 119.863 53.7996 120.008 53.583C120.156 53.3626 120.253 53.0985 120.299 52.7907H122.59C122.552 53.4595 122.37 54.0486 122.043 54.5578C121.72 55.0632 121.273 55.4585 120.703 55.7435C120.133 56.0285 119.459 56.171 118.68 56.171ZM125.564 56.1482C125.188 56.1482 124.865 56.0152 124.595 55.7492C124.329 55.4794 124.196 55.1563 124.196 54.7801C124.196 54.4077 124.329 54.0885 124.595 53.8224C124.865 53.5564 125.188 53.4234 125.564 53.4234C125.929 53.4234 126.248 53.5564 126.522 53.8224C126.796 54.0885 126.932 54.4077 126.932 54.7801C126.932 55.0309 126.868 55.2608 126.739 55.4699C126.613 55.6751 126.448 55.8404 126.243 55.9658C126.037 56.0874 125.811 56.1482 125.564 56.1482Z" fill="#0094FF"/>
<path d="M101.506 384.429C101.426 384.152 101.314 383.907 101.17 383.694C101.025 383.477 100.848 383.295 100.639 383.147C100.434 382.995 100.199 382.879 99.9325 382.799C99.6703 382.719 99.3796 382.679 99.0603 382.679C98.4637 382.679 97.9393 382.828 97.487 383.124C97.0386 383.42 96.689 383.852 96.4382 384.418C96.1873 384.98 96.0619 385.668 96.0619 386.481C96.0619 387.295 96.1854 387.986 96.4325 388.556C96.6795 389.126 97.0291 389.562 97.4813 389.862C97.9336 390.158 98.4675 390.306 99.0832 390.306C99.6418 390.306 100.119 390.208 100.514 390.01C100.913 389.809 101.217 389.525 101.426 389.161C101.639 388.796 101.745 388.364 101.745 387.867L102.247 387.941H99.2371V386.082H104.122V387.553C104.122 388.579 103.906 389.461 103.472 390.198C103.039 390.932 102.443 391.498 101.683 391.897C100.922 392.292 100.052 392.49 99.0718 392.49C97.9773 392.49 97.0158 392.248 96.1873 391.766C95.3589 391.279 94.7128 390.59 94.2492 389.696C93.7894 388.8 93.5595 387.736 93.5595 386.504C93.5595 385.558 93.6963 384.714 93.9699 383.973C94.2473 383.228 94.6349 382.598 95.1328 382.081C95.6306 381.564 96.2101 381.171 96.8714 380.901C97.5326 380.631 98.249 380.496 99.0204 380.496C99.6817 380.496 100.297 380.593 100.867 380.787C101.437 380.977 101.943 381.247 102.384 381.596C102.828 381.946 103.191 382.362 103.472 382.845C103.754 383.323 103.934 383.852 104.014 384.429H101.506ZM105.976 392.33V380.656H108.445V390.295H113.45V392.33H105.976ZM117.552 380.656V392.33H115.084V380.656H117.552ZM119.583 380.656H122.627L125.842 388.499H125.979L129.194 380.656H132.238V392.33H129.844V384.731H129.747L126.726 392.273H125.096L122.074 384.703H121.977V392.33H119.583V380.656ZM134.272 392.33V380.656H138.878C139.763 380.656 140.518 380.825 141.141 381.163C141.764 381.497 142.239 381.963 142.566 382.56C142.896 383.152 143.062 383.836 143.062 384.612C143.062 385.387 142.895 386.071 142.56 386.664C142.226 387.257 141.741 387.718 141.107 388.049C140.476 388.38 139.712 388.545 138.815 388.545H135.879V386.567H138.416C138.891 386.567 139.282 386.485 139.59 386.322C139.902 386.155 140.134 385.925 140.286 385.632C140.441 385.336 140.519 384.996 140.519 384.612C140.519 384.224 140.441 383.886 140.286 383.597C140.134 383.304 139.902 383.078 139.59 382.919C139.279 382.755 138.883 382.674 138.405 382.674H136.74V392.33H134.272ZM150.998 384.013C150.953 383.553 150.757 383.196 150.411 382.942C150.065 382.687 149.596 382.56 149.003 382.56C148.6 382.56 148.26 382.617 147.983 382.731C147.705 382.841 147.492 382.995 147.344 383.192C147.2 383.39 147.128 383.614 147.128 383.865C147.12 384.074 147.164 384.256 147.259 384.412C147.358 384.568 147.492 384.703 147.663 384.817C147.834 384.927 148.032 385.024 148.256 385.108C148.48 385.187 148.72 385.256 148.975 385.313L150.023 385.564C150.533 385.678 151 385.83 151.426 386.02C151.851 386.21 152.22 386.443 152.532 386.721C152.843 386.998 153.085 387.325 153.256 387.701C153.43 388.078 153.52 388.509 153.523 388.995C153.52 389.71 153.337 390.329 152.976 390.854C152.619 391.374 152.102 391.779 151.426 392.068C150.753 392.353 149.942 392.495 148.992 392.495C148.049 392.495 147.228 392.351 146.529 392.062C145.834 391.773 145.29 391.346 144.899 390.78C144.511 390.21 144.308 389.505 144.289 388.665H146.677C146.704 389.056 146.816 389.383 147.014 389.645C147.215 389.904 147.483 390.099 147.817 390.232C148.156 390.362 148.538 390.426 148.963 390.426C149.381 390.426 149.744 390.365 150.052 390.244C150.364 390.122 150.605 389.953 150.776 389.736C150.947 389.52 151.032 389.271 151.032 388.99C151.032 388.727 150.954 388.507 150.799 388.328C150.647 388.15 150.422 387.998 150.126 387.872C149.833 387.747 149.474 387.633 149.049 387.53L147.777 387.211C146.793 386.972 146.016 386.597 145.446 386.088C144.876 385.579 144.593 384.893 144.597 384.03C144.593 383.323 144.781 382.706 145.161 382.178C145.545 381.649 146.071 381.237 146.74 380.941C147.409 380.644 148.169 380.496 149.02 380.496C149.887 380.496 150.643 380.644 151.289 380.941C151.939 381.237 152.444 381.649 152.805 382.178C153.166 382.706 153.352 383.318 153.364 384.013H150.998ZM155.184 392.33V380.656H163.05V382.691H157.652V385.472H162.646V387.508H157.652V390.295H163.073V392.33H155.184ZM171.346 384.013C171.3 383.553 171.104 383.196 170.759 382.942C170.413 382.687 169.943 382.56 169.351 382.56C168.948 382.56 168.608 382.617 168.33 382.731C168.053 382.841 167.84 382.995 167.692 383.192C167.547 383.39 167.475 383.614 167.475 383.865C167.468 384.074 167.511 384.256 167.606 384.412C167.705 384.568 167.84 384.703 168.011 384.817C168.182 384.927 168.38 385.024 168.604 385.108C168.828 385.187 169.068 385.256 169.322 385.313L170.371 385.564C170.88 385.678 171.348 385.83 171.773 386.02C172.199 386.21 172.568 386.443 172.879 386.721C173.191 386.998 173.432 387.325 173.603 387.701C173.778 388.078 173.867 388.509 173.871 388.995C173.867 389.71 173.685 390.329 173.324 390.854C172.967 391.374 172.45 391.779 171.773 392.068C171.101 392.353 170.289 392.495 169.339 392.495C168.397 392.495 167.576 392.351 166.877 392.062C166.181 391.773 165.638 391.346 165.246 390.78C164.859 390.21 164.655 389.505 164.636 388.665H167.025C167.051 389.056 167.164 389.383 167.361 389.645C167.563 389.904 167.831 390.099 168.165 390.232C168.503 390.362 168.885 390.426 169.311 390.426C169.729 390.426 170.092 390.365 170.4 390.244C170.711 390.122 170.952 389.953 171.123 389.736C171.294 389.52 171.38 389.271 171.38 388.99C171.38 388.727 171.302 388.507 171.146 388.328C170.994 388.15 170.77 387.998 170.474 387.872C170.181 387.747 169.822 387.633 169.396 387.53L168.125 387.211C167.141 386.972 166.364 386.597 165.794 386.088C165.224 385.579 164.94 384.893 164.944 384.03C164.94 383.323 165.129 382.706 165.509 382.178C165.892 381.649 166.419 381.237 167.088 380.941C167.756 380.644 168.516 380.496 169.368 380.496C170.234 380.496 170.99 380.644 171.636 380.941C172.286 381.237 172.792 381.649 173.153 382.178C173.514 382.706 173.7 383.318 173.711 384.013H171.346Z" fill="white"/>
<defs>
<filter id="filter0_d_1088_2108" x="24.7733" y="25.9656" width="714.621" height="376.923" filterUnits="userSpaceOnUse" color-interpolation-filters="sRGB">
<feFlood flood-opacity="0" result="BackgroundImageFix"/>
<feColorMatrix in="SourceAlpha" type="matrix" values="0 0 0 0 0 0 0 0 0 0 0 0 0 0 0 0 0 0 127 0" result="hardAlpha"/>
<feOffset/>
<feGaussianBlur stdDeviation="1.68173"/>
<feColorMatrix type="matrix" values="0 0 0 0 1 0 0 0 0 0 0 0 0 0 0.258824 0 0 0 1 0"/>
<feBlend mode="normal" in2="BackgroundImageFix" result="effect1_dropShadow_1088_2108"/>
<feBlend mode="normal" in="SourceGraphic" in2="effect1_dropShadow_1088_2108" result="shape"/>
</filter>
<filter id="filter1_d_1088_2108" x="712.332" y="382.244" width="29.9535" height="25.9701" filterUnits="userSpaceOnUse" color-interpolation-filters="sRGB">
<feFlood flood-opacity="0" result="BackgroundImageFix"/>
<feColorMatrix in="SourceAlpha" type="matrix" values="0 0 0 0 0 0 0 0 0 0 0 0 0 0 0 0 0 0 127 0" result="hardAlpha"/>
<feOffset/>
<feGaussianBlur stdDeviation="1.68173"/>
<feColorMatrix type="matrix" values="0 0 0 0 1 0 0 0 0 0 0 0 0 0 0.258824 0 0 0 1 0"/>
<feBlend mode="normal" in2="BackgroundImageFix" result="effect1_dropShadow_1088_2108"/>
<feBlend mode="normal" in="SourceGraphic" in2="effect1_dropShadow_1088_2108" result="shape"/>
</filter>
<filter id="filter2_d_1088_2108" x="25.9334" y="23.9852" width="63.8129" height="49.2064" filterUnits="userSpaceOnUse" color-interpolation-filters="sRGB">
<feFlood flood-opacity="0" result="BackgroundImageFix"/>
<feColorMatrix in="SourceAlpha" type="matrix" values="0 0 0 0 0 0 0 0 0 0 0 0 0 0 0 0 0 0 127 0" result="hardAlpha"/>
<feOffset/>
<feGaussianBlur stdDeviation="1.68173"/>
<feColorMatrix type="matrix" values="0 0 0 0 1 0 0 0 0 0 0 0 0 0 0.258824 0 0 0 1 0"/>
<feBlend mode="normal" in2="BackgroundImageFix" result="effect1_dropShadow_1088_2108"/>
<feBlend mode="normal" in="SourceGraphic" in2="effect1_dropShadow_1088_2108" result="shape"/>
</filter>
</defs>
</svg>
