<svg width="638" height="909" viewBox="0 0 638 909" fill="none" xmlns="http://www.w3.org/2000/svg">
<g filter="url(#filter0_d_2947_202)">
<path fill-rule="evenodd" clip-rule="evenodd" d="M81.7437 63.827L28.5737 172.131V242.945L48.2663 278.353V419.981L31.5278 453.305L31.5643 540.01L24.2539 556.806V634.071L31.5278 649.729V742.81L78.7899 844.866H169.375L183.161 812.928L330.855 812.004L342.669 841.166H596.706L615.414 803.675L614.427 659.502L598.673 628.261V521.516L606.097 504.737V424.952L598.673 408.241V309.594L615.414 276.27L616.398 136.724L596.706 101.317H267.839L255.038 65.0702L81.7437 63.827Z" stroke="#800785" stroke-width="1.58542"/>
</g>
<path fill-rule="evenodd" clip-rule="evenodd" d="M506.194 83.1411H509.075L494.199 44.509H491.317L506.194 83.1411ZM499.611 83.1411H502.493L487.612 44.509H484.732L499.611 83.1411ZM493.026 83.1411H495.906L481.029 44.509H478.149L493.026 83.1411ZM486.443 83.1411H489.323L474.447 44.509H471.566L486.443 83.1411ZM479.857 83.1411H482.737L467.861 44.509H464.98L479.857 83.1411ZM473.274 83.1411H476.155L461.275 44.509H458.394L473.274 83.1411ZM466.688 83.1411H469.569L454.692 44.509H451.811L466.688 83.1411ZM460.102 83.1411H462.983L448.106 44.509H445.225L460.102 83.1411ZM453.516 83.1411H456.396L441.52 44.509H438.639L453.516 83.1411ZM446.93 83.1411H449.811L434.934 44.509H432.054L446.93 83.1411ZM440.348 83.1411H443.228L428.351 44.509H425.467L440.348 83.1411ZM433.761 83.1411H436.642L421.765 44.509H418.884L433.761 83.1411ZM427.175 83.1411H430.056L415.18 44.509H412.298L427.175 83.1411ZM420.589 83.1411H423.47L408.593 44.509H405.713L420.589 83.1411ZM414.007 83.1411H416.887L402.007 44.509H399.127L414.007 83.1411ZM407.421 83.1411H410.301L395.424 44.509H392.544L407.421 83.1411ZM400.834 83.1411H403.715L388.839 44.509H385.957L400.834 83.1411ZM394.248 83.1411H397.129L382.253 44.509H379.372L394.248 83.1411ZM591.899 83.1411H594.78L579.899 44.509H577.019L591.899 83.1411ZM585.313 83.1411H588.193L573.317 44.509H570.436L585.313 83.1411ZM578.726 83.1411H581.608L566.731 44.509H563.85L578.726 83.1411ZM572.141 83.1411H575.022L560.145 44.509H557.264L572.141 83.1411ZM565.558 83.1411H568.439L553.559 44.509H550.678L565.558 83.1411ZM558.972 83.1411H561.853L546.976 44.509H544.095L558.972 83.1411ZM552.386 83.1411H555.267L540.39 44.509H537.51L552.386 83.1411ZM545.8 83.1411H548.681L533.804 44.509H530.923L545.8 83.1411ZM539.217 83.1411H542.098L527.218 44.509H524.337L539.217 83.1411ZM532.631 83.1411H535.512L520.636 44.509H517.754L532.631 83.1411ZM526.045 83.1411H528.926L514.05 44.509H511.169L526.045 83.1411ZM519.46 83.1411H522.34L507.463 44.509H504.583L519.46 83.1411ZM512.873 83.1411H515.754L500.877 44.509H497.996L512.873 83.1411ZM387.336 83.1411H390.218L375.341 44.509H372.46L387.336 83.1411ZM380.75 83.1411H383.632L368.755 44.509H365.874L380.75 83.1411ZM374.168 83.1411H377.049L362.169 44.509H359.288L374.168 83.1411ZM367.585 83.1411H370.466L355.59 44.509H352.708L367.585 83.1411ZM360.999 83.1411H363.881L349.004 44.509H346.122L360.999 83.1411ZM354.413 83.1411H357.294L342.417 44.509H339.537L354.413 83.1411ZM347.831 83.1411H350.711L335.831 44.509H332.951L347.831 83.1411ZM341.245 83.1411H344.125L329.247 44.509H326.367L341.245 83.1411ZM334.658 83.1411H337.54L322.662 44.509H319.781L334.658 83.1411ZM328.072 83.1411H330.954L316.077 44.509H313.196L328.072 83.1411ZM321.488 83.1411H324.368L309.492 44.509H306.611L321.488 83.1411ZM314.902 83.1411H317.783L302.907 44.509H300.027L314.902 83.1411ZM308.317 83.1411H311.198L296.321 44.509H293.441L308.317 83.1411ZM301.731 83.1411H304.613L289.736 44.509H286.855L301.731 83.1411ZM295.146 83.1411H298.027L283.151 44.509H280.27L295.146 83.1411ZM288.563 83.1411H291.445L276.568 44.509H273.686L288.563 83.1411ZM281.978 83.1411H284.859L269.981 44.509H267.099L281.978 83.1411ZM275.392 83.1411H278.274L263.395 44.509H260.514L275.392 83.1411Z" fill="#800785"/>
<path fill-rule="evenodd" clip-rule="evenodd" d="M333.319 864.181H336.201L321.323 825.548H318.441L333.319 864.181ZM326.734 864.181H329.614L314.738 825.548H311.857L326.734 864.181ZM320.148 864.181H323.03L308.152 825.548H305.271L320.148 864.181ZM313.237 864.181H316.118L301.241 825.548H298.359L313.237 864.181ZM306.651 864.181H309.53L294.653 825.548H291.772L306.651 864.181ZM300.066 864.181H302.948L288.07 825.548H285.189L300.066 864.181ZM293.484 864.181H296.366L281.489 825.548H278.607L293.484 864.181ZM286.899 864.181H289.78L274.903 825.548H272.022L286.899 864.181ZM280.314 864.181H283.195L268.318 825.548H265.436L280.314 864.181ZM273.729 864.181H276.609L261.732 825.548H258.852L273.729 864.181ZM267.143 864.181H270.025L255.147 825.548H252.266L267.143 864.181ZM260.558 864.181H263.439L248.562 825.548H245.681L260.558 864.181ZM253.973 864.181H256.854L241.976 825.548H239.095L253.973 864.181ZM247.388 864.181H250.269L235.392 825.548H232.51L247.388 864.181ZM240.803 864.181H243.683L228.806 825.548H225.926L240.803 864.181ZM234.217 864.181H237.099L222.221 825.548H219.339L234.217 864.181ZM227.633 864.181H230.513L215.635 825.548H212.754L227.633 864.181ZM221.047 864.181H223.928L209.05 825.548H206.169L221.047 864.181ZM214.462 864.181H217.342L202.466 825.548H199.584L214.462 864.181ZM207.876 864.181H210.757L195.88 825.548H192.999L207.876 864.181ZM201.291 864.181H204.172L189.295 825.548H186.414L201.291 864.181Z" fill="#800785"/>
<g filter="url(#filter1_d_2947_202)">
<path fill-rule="evenodd" clip-rule="evenodd" d="M601.867 856.136L618.645 856.003L618.807 820.666L601.867 856.136Z" stroke="#800785" stroke-width="1.58542"/>
</g>
<g filter="url(#filter2_d_2947_202)">
<path fill-rule="evenodd" clip-rule="evenodd" d="M70.4147 59.7793L25.7903 59.6308L25.25 144.578L70.4147 59.7793Z" stroke="#C827D7" stroke-width="1.58542"/>
</g>
<path fill-rule="evenodd" clip-rule="evenodd" d="M573.553 276.145H578.839V284.388H573.553V276.145ZM573.553 311.156H578.839V319.37H573.553V311.156ZM573.553 346.168H578.839V354.381H573.553V346.168ZM573.553 381.176H578.839V389.444H573.553V381.176ZM573.553 416.214H578.839V424.454H573.553V416.214ZM573.553 451.224H578.839V459.49H573.553V451.224ZM573.553 486.287H578.839V494.502H573.553V486.287Z" fill="white"/>
<path fill-rule="evenodd" clip-rule="evenodd" d="M146.537 822.192H150.639V832.271H146.537V822.192Z" fill="white"/>
<path opacity="0.6" fill-rule="evenodd" clip-rule="evenodd" d="M152.189 822.192H156.292V832.271H152.189V822.192Z" fill="white"/>
<path opacity="0.6" fill-rule="evenodd" clip-rule="evenodd" d="M158.504 822.192H162.595V832.271H158.504V822.192Z" fill="white"/>
<path opacity="0.4" fill-rule="evenodd" clip-rule="evenodd" d="M164.15 822.192H168.252V832.271H164.15V822.192Z" fill="white"/>
<path fill-rule="evenodd" clip-rule="evenodd" d="M574.533 540.849H578.852V543.368H574.533V540.849ZM574.533 561.003H578.852V563.525H574.533V561.003ZM574.533 581.16H578.852V583.68H574.533V581.16ZM574.533 602.156H578.852V604.676H574.533V602.156ZM574.533 622.311H578.852V624.83H574.533V622.311ZM574.533 642.468H578.852V644.987H574.533V642.468ZM574.533 662.623H578.852V665.142H574.533V662.623ZM574.533 682.78H578.852V685.299H574.533V682.78ZM574.533 702.935H578.852V705.454H574.533V702.935ZM574.533 723.931H578.852V726.45H574.533V723.931ZM574.865 744.088H579.185V746.607H574.865V744.088ZM574.865 764.242H579.185V766.762H574.865V764.242Z" fill="white"/>
<path d="M126 107H155.61L158.589 114H170.881L174.418 107H199" stroke="white" stroke-width="0.792708"/>
<path fill-rule="evenodd" clip-rule="evenodd" d="M391.439 807.915L507.353 808.15L510.324 817.761H522.575L526.104 808.15H550.607" fill="black"/>
<path d="M391.439 807.915L507.353 808.15L510.324 817.761H522.575L526.104 808.15H550.607" stroke="black" stroke-width="0.792708"/>
<path fill-rule="evenodd" clip-rule="evenodd" d="M391.439 807.915L507.353 808.15L510.324 817.761H522.575L526.104 808.15H550.607" fill="white"/>
<path d="M391.439 807.915L507.353 808.15L510.324 817.761H522.575L526.104 808.15H550.607" stroke="white" stroke-width="0.792708"/>
<path fill-rule="evenodd" clip-rule="evenodd" d="M21.2598 637.887V549.644L29.38 533.492L29.0679 486.08L35.856 474.5L36.2215 541.552L28.0488 557.812V629.719L36.1959 645.928V708.831L29.4059 697.527V654.09L21.2598 637.887Z" fill="#800785"/>
<path fill-rule="evenodd" clip-rule="evenodd" d="M609.765 421.992V510.225L601.644 526.375L601.956 573.783L595.168 585.358L594.799 518.317L602.973 502.058V430.158L594.828 413.955V351.061L601.617 362.358V405.789L609.765 421.992Z" fill="#800785"/>
<path fill-rule="evenodd" clip-rule="evenodd" d="M171.192 115H156.506L153.818 109.031L145.927 109.26L144 104.27L155.159 104L157.866 110.009H169.834L172.531 104.02H183L181.12 109.011H173.889L171.192 115Z" fill="white"/>
<path fill-rule="evenodd" clip-rule="evenodd" d="M523.011 820.505H508.54L505.891 812.309L498.115 812.623L496.215 805.77L507.213 805.399L509.879 813.652H521.672L524.33 805.427H534.644L532.79 812.282H525.669L523.011 820.505Z" fill="white"/>
<path d="M464 139.807V126.186H469.214V128.561H465.636V131.806H468.945V134.181H465.636V137.433H469.229V139.807H464ZM474.1 131.873V134.121H470.571V131.873H474.1ZM479.7 130.104C479.67 129.567 479.54 129.15 479.311 128.853C479.082 128.556 478.771 128.408 478.378 128.408C478.11 128.408 477.886 128.474 477.701 128.607C477.517 128.736 477.376 128.915 477.278 129.146C477.183 129.376 477.135 129.638 477.135 129.931C477.13 130.175 477.158 130.387 477.221 130.569C477.287 130.751 477.376 130.908 477.49 131.041C477.603 131.17 477.734 131.283 477.883 131.381C478.032 131.474 478.19 131.553 478.359 131.62L479.054 131.913C479.391 132.046 479.702 132.223 479.984 132.445C480.266 132.666 480.51 132.939 480.717 133.263C480.923 133.586 481.084 133.968 481.197 134.407C481.313 134.846 481.371 135.349 481.374 135.916C481.371 136.75 481.251 137.473 481.011 138.085C480.775 138.692 480.432 139.164 479.984 139.501C479.537 139.834 479 140 478.371 140C477.746 140 477.201 139.832 476.738 139.495C476.277 139.158 475.917 138.659 475.657 137.998C475.4 137.333 475.266 136.511 475.253 135.531H476.836C476.854 135.987 476.928 136.369 477.059 136.675C477.193 136.976 477.371 137.204 477.592 137.36C477.816 137.51 478.069 137.586 478.351 137.586C478.628 137.586 478.869 137.515 479.073 137.373C479.28 137.231 479.439 137.034 479.553 136.781C479.667 136.528 479.723 136.238 479.723 135.91C479.723 135.604 479.672 135.347 479.568 135.138C479.467 134.93 479.318 134.752 479.122 134.606C478.928 134.46 478.69 134.327 478.408 134.207L477.565 133.835C476.913 133.555 476.398 133.119 476.02 132.525C475.642 131.93 475.454 131.13 475.457 130.124C475.454 129.299 475.579 128.578 475.831 127.962C476.085 127.346 476.434 126.865 476.878 126.519C477.321 126.173 477.825 126 478.389 126C478.964 126 479.464 126.173 479.893 126.519C480.324 126.865 480.659 127.346 480.898 127.962C481.137 128.578 481.261 129.292 481.268 130.104H479.7ZM487.255 126.186H488.89V135.032C488.89 136.025 488.755 136.894 488.486 137.639C488.219 138.384 487.845 138.965 487.364 139.381C486.883 139.794 486.323 140 485.682 140C485.04 140 484.479 139.794 483.997 139.381C483.516 138.965 483.142 138.384 482.875 137.639C482.608 136.894 482.474 136.025 482.474 135.032V126.186H484.11V134.786C484.11 135.305 484.175 135.766 484.303 136.169C484.434 136.573 484.618 136.89 484.855 137.12C485.092 137.351 485.368 137.466 485.682 137.466C486 137.466 486.276 137.351 486.51 137.12C486.747 136.89 486.929 136.573 487.058 136.169C487.189 135.766 487.255 135.305 487.255 134.786V126.186ZM490.237 126.186H492.254L494.385 135.338H494.476L496.607 126.186H498.624V139.807H497.038V130.942H496.973L494.971 139.741H493.89L491.888 130.908H491.823V139.807H490.237V126.186ZM499.972 126.186H501.99L504.122 135.338H504.212L506.343 126.186H508.361V139.807H506.774V130.942H506.71L504.707 139.741H503.627L501.624 130.908H501.56V139.807H499.972V126.186ZM511.345 126.186V139.807H509.709V126.186H511.345ZM512.397 128.561V126.186H518.751V128.561H516.382V139.807H514.766V128.561H512.397ZM522.215 139.807V137.732L524.97 133.243C525.204 132.844 525.401 132.485 525.559 132.165C525.721 131.846 525.843 131.534 525.926 131.228C526.009 130.917 526.051 130.582 526.051 130.223C526.051 129.824 525.999 129.481 525.896 129.192C525.792 128.9 525.651 128.676 525.473 128.521C525.294 128.361 525.091 128.281 524.865 128.281C524.627 128.281 524.421 128.366 524.245 128.534C524.068 128.703 523.933 128.944 523.837 129.259C523.74 129.574 523.693 129.948 523.693 130.383H522.14C522.14 129.492 522.255 128.718 522.484 128.062C522.713 127.406 523.034 126.898 523.448 126.539C523.86 126.18 524.337 126 524.875 126C525.43 126 525.912 126.173 526.323 126.519C526.736 126.86 527.058 127.335 527.287 127.942C527.516 128.55 527.63 129.246 527.63 130.03C527.63 130.545 527.573 131.052 527.456 131.553C527.343 132.055 527.141 132.611 526.848 133.223C526.556 133.83 526.144 134.56 525.612 135.411L524.483 137.36V137.453H527.732V139.807H522.215ZM531.778 139.993C531.213 139.993 530.711 139.823 530.27 139.481C529.832 139.135 529.485 138.661 529.231 138.058C528.979 137.451 528.849 136.75 528.842 135.956H530.489C530.5 136.289 530.562 136.581 530.675 136.834C530.791 137.083 530.944 137.275 531.135 137.413C531.327 137.55 531.542 137.619 531.781 137.619C532.031 137.619 532.251 137.541 532.443 137.386C532.635 137.231 532.784 137.016 532.893 136.741C533.001 136.466 533.055 136.149 533.055 135.79C533.055 135.426 532.997 135.105 532.881 134.826C532.768 134.542 532.604 134.32 532.39 134.161C532.178 134.001 531.927 133.921 531.635 133.921H530.912V131.806H531.635C531.881 131.806 532.099 131.731 532.288 131.58C532.479 131.429 532.628 131.221 532.734 130.955C532.84 130.684 532.893 130.37 532.893 130.011C532.893 129.669 532.846 129.37 532.753 129.113C532.662 128.851 532.534 128.647 532.368 128.501C532.203 128.354 532.012 128.281 531.793 128.281C531.572 128.281 531.369 128.352 531.185 128.494C531.001 128.632 530.854 128.829 530.743 129.086C530.632 129.343 530.573 129.645 530.565 129.991H528.997C529.005 129.206 529.132 128.514 529.379 127.915C529.625 127.317 529.958 126.849 530.376 126.512C530.797 126.171 531.271 126 531.801 126C532.335 126 532.802 126.171 533.203 126.512C533.603 126.854 533.914 127.315 534.135 127.896C534.36 128.472 534.471 129.119 534.468 129.838C534.471 130.6 534.336 131.236 534.064 131.746C533.795 132.256 533.443 132.58 533.01 132.717V132.824C533.579 132.952 534.012 133.3 534.31 133.868C534.609 134.431 534.758 135.136 534.755 135.983C534.758 136.759 534.63 137.448 534.374 138.051C534.119 138.654 533.768 139.129 533.32 139.475C532.871 139.82 532.358 139.993 531.778 139.993ZM546.033 130.589C545.98 130.265 545.906 129.98 545.811 129.731C545.715 129.478 545.597 129.266 545.459 129.093C545.323 128.915 545.167 128.78 544.99 128.687C544.816 128.594 544.623 128.547 544.412 128.547C544.017 128.547 543.669 128.72 543.369 129.066C543.072 129.412 542.841 129.915 542.674 130.576C542.508 131.232 542.425 132.035 542.425 132.983C542.425 133.932 542.507 134.739 542.67 135.404C542.834 136.069 543.066 136.577 543.366 136.927C543.665 137.273 544.019 137.446 544.427 137.446C544.798 137.446 545.113 137.331 545.376 137.1C545.64 136.865 545.842 136.535 545.98 136.109C546.122 135.684 546.192 135.18 546.192 134.599L546.524 134.686H544.529V132.518H547.768V134.234C547.768 135.431 547.624 136.46 547.336 137.32C547.05 138.175 546.654 138.836 546.15 139.302C545.647 139.763 545.07 139.993 544.42 139.993C543.694 139.993 543.057 139.712 542.508 139.149C541.959 138.581 541.53 137.776 541.223 136.734C540.919 135.688 540.766 134.447 540.766 133.01C540.766 131.906 540.857 130.922 541.038 130.057C541.222 129.188 541.479 128.452 541.809 127.849C542.139 127.246 542.523 126.787 542.962 126.472C543.399 126.157 543.874 126 544.386 126C544.824 126 545.232 126.113 545.61 126.339C545.988 126.561 546.323 126.876 546.615 127.284C546.909 127.692 547.15 128.177 547.336 128.74C547.524 129.299 547.643 129.915 547.695 130.589H546.033ZM548.997 139.807V126.186H550.633V137.433H553.95V139.807H548.997ZM556.669 126.186V139.807H555.033V126.186H556.669ZM558.016 126.186H560.033L562.164 135.338H562.255L564.386 126.186H566.404V139.807H564.817V130.942H564.753L562.75 139.741H561.669L559.667 130.908H559.603V139.807H558.016V126.186ZM567.752 139.807V126.186H570.805C571.391 126.186 571.892 126.384 572.305 126.778C572.718 127.168 573.033 127.712 573.25 128.408C573.469 129.099 573.578 129.897 573.578 130.802C573.578 131.706 573.468 132.505 573.245 133.196C573.024 133.888 572.703 134.427 572.282 134.812C571.864 135.198 571.358 135.391 570.763 135.391H568.818V133.083H570.499C570.813 133.083 571.073 132.988 571.277 132.797C571.484 132.602 571.637 132.334 571.738 131.992C571.841 131.647 571.893 131.25 571.893 130.802C571.893 130.35 571.841 129.955 571.738 129.618C571.637 129.277 571.484 129.013 571.277 128.827C571.071 128.636 570.808 128.541 570.491 128.541H569.388V139.807H567.752ZM578.839 130.104C578.809 129.567 578.679 129.15 578.45 128.853C578.22 128.556 577.91 128.408 577.516 128.408C577.249 128.408 577.024 128.474 576.84 128.607C576.656 128.736 576.515 128.915 576.416 129.146C576.321 129.376 576.273 129.638 576.273 129.931C576.268 130.175 576.297 130.387 576.36 130.569C576.426 130.751 576.515 130.908 576.629 131.041C576.742 131.17 576.873 131.283 577.021 131.381C577.17 131.474 577.328 131.553 577.498 131.62L578.192 131.913C578.53 132.046 578.84 132.223 579.122 132.445C579.405 132.666 579.649 132.939 579.855 133.263C580.061 133.586 580.222 133.968 580.335 134.407C580.451 134.846 580.51 135.349 580.513 135.916C580.51 136.75 580.39 137.473 580.15 138.085C579.913 138.692 579.571 139.164 579.122 139.501C578.676 139.834 578.139 140 577.509 140C576.884 140 576.34 139.832 575.876 139.495C575.416 139.158 575.056 138.659 574.796 137.998C574.539 137.333 574.404 136.511 574.391 135.531H575.974C575.993 135.987 576.067 136.369 576.197 136.675C576.331 136.976 576.509 137.204 576.73 137.36C576.955 137.51 577.208 137.586 577.49 137.586C577.767 137.586 578.008 137.515 578.212 137.373C578.418 137.231 578.578 137.034 578.692 136.781C578.805 136.528 578.862 136.238 578.862 135.91C578.862 135.604 578.81 135.347 578.707 135.138C578.606 134.93 578.457 134.752 578.26 134.606C578.067 134.46 577.828 134.327 577.546 134.207L576.704 133.835C576.052 133.555 575.536 133.119 575.159 132.525C574.781 131.93 574.593 131.13 574.596 130.124C574.593 129.299 574.718 128.578 574.969 127.962C575.224 127.346 575.573 126.865 576.016 126.519C576.46 126.173 576.963 126 577.528 126C578.102 126 578.603 126.173 579.031 126.519C579.463 126.865 579.797 127.346 580.036 127.962C580.276 128.578 580.4 129.292 580.407 130.104H578.839ZM581.613 139.807V126.186H586.827V128.561H583.249V131.806H586.559V134.181H583.249V137.433H586.842V139.807H581.613ZM592.326 130.104C592.296 129.567 592.166 129.15 591.937 128.853C591.707 128.556 591.397 128.408 591.003 128.408C590.737 128.408 590.511 128.474 590.327 128.607C590.144 128.736 590.003 128.915 589.904 129.146C589.808 129.376 589.76 129.638 589.76 129.931C589.755 130.175 589.784 130.387 589.847 130.569C589.913 130.751 590.003 130.908 590.116 131.041C590.229 131.17 590.36 131.283 590.508 131.381C590.657 131.474 590.816 131.553 590.985 131.62L591.68 131.913C592.018 132.046 592.327 132.223 592.609 132.445C592.892 132.666 593.136 132.939 593.342 133.263C593.549 133.586 593.709 133.968 593.822 134.407C593.938 134.846 593.997 135.349 594 135.916C593.997 136.75 593.877 137.473 593.638 138.085C593.4 138.692 593.058 139.164 592.609 139.501C592.164 139.834 591.626 140 590.996 140C590.372 140 589.827 139.832 589.363 139.495C588.903 139.158 588.543 138.659 588.283 137.998C588.026 137.333 587.891 136.511 587.878 135.531H589.462C589.48 135.987 589.554 136.369 589.685 136.675C589.818 136.976 589.996 137.204 590.217 137.36C590.442 137.51 590.695 137.586 590.977 137.586C591.254 137.586 591.495 137.515 591.699 137.373C591.905 137.231 592.065 137.034 592.179 136.781C592.292 136.528 592.349 136.238 592.349 135.91C592.349 135.604 592.297 135.347 592.194 135.138C592.093 134.93 591.945 134.752 591.748 134.606C591.554 134.46 591.316 134.327 591.034 134.207L590.191 133.835C589.539 133.555 589.024 133.119 588.646 132.525C588.268 131.93 588.081 131.13 588.083 130.124C588.081 129.299 588.205 128.578 588.457 127.962C588.712 127.346 589.061 126.865 589.503 126.519C589.947 126.173 590.451 126 591.015 126C591.589 126 592.091 126.173 592.518 126.519C592.95 126.865 593.284 127.346 593.524 127.962C593.763 128.578 593.887 129.292 593.894 130.104H592.326Z" fill="white"/>
<path d="M83 114.717V100.208H84.9361V102.739H85.0118C85.1426 101.839 85.363 101.159 85.6723 100.699C85.9824 100.233 86.3385 100 86.7416 100C86.8419 100 86.9497 100.013 87.0648 100.038C87.1808 100.063 87.2819 100.098 87.37 100.142V103.712C87.2762 103.655 87.1462 103.605 86.9809 103.561C86.8148 103.517 86.6634 103.495 86.5261 103.495C86.2324 103.495 85.9692 103.624 85.7381 103.882C85.5102 104.134 85.3285 104.487 85.1944 104.94C85.0628 105.394 84.997 105.916 84.997 106.508V114.717H83ZM91.3493 115C90.6082 115 89.9708 114.698 89.4361 114.093C88.9048 113.482 88.4952 112.62 88.2081 111.505C87.9202 110.384 87.7763 109.059 87.7763 107.528C87.7763 106.036 87.9202 104.726 88.2081 103.599C88.4952 102.472 88.9007 101.593 89.4221 100.963C89.9477 100.334 90.563 100.019 91.2695 100.019C91.7449 100.019 92.1874 100.173 92.5962 100.482C93.0091 100.784 93.3686 101.24 93.6746 101.851C93.9846 102.462 94.2248 103.23 94.3967 104.156C94.5686 105.076 94.655 106.152 94.655 107.387V108.492H88.5733V105.998H92.7747C92.7747 105.419 92.7122 104.906 92.5872 104.458C92.4622 104.011 92.2886 103.662 92.0665 103.41C91.8477 103.152 91.5928 103.023 91.3024 103.023C90.9989 103.023 90.7308 103.164 90.4964 103.448C90.2644 103.725 90.0834 104.099 89.9518 104.572C89.8211 105.038 89.7536 105.557 89.7503 106.13V108.501C89.7503 109.219 89.8161 109.839 89.9477 110.362C90.0818 110.885 90.271 111.288 90.5144 111.571C90.7587 111.855 91.0474 111.996 91.3822 111.996C91.6043 111.996 91.8074 111.933 91.9917 111.807C92.1759 111.681 92.3339 111.493 92.4655 111.241C92.5962 110.989 92.6966 110.68 92.7657 110.315L94.6131 110.56C94.5193 111.455 94.3268 112.236 94.0356 112.903C93.7486 113.564 93.3768 114.081 92.9203 114.452C92.4671 114.817 91.9432 115 91.3493 115ZM99.2126 115C98.4748 115 97.8398 114.685 97.3084 114.055C96.7804 113.419 96.3741 112.538 96.0895 111.411C95.8082 110.283 95.6675 108.986 95.6675 107.519C95.6675 106.033 95.8098 104.729 96.0944 103.608C96.3823 102.481 96.7894 101.603 97.3183 100.973C97.8464 100.337 98.4748 100.019 99.2027 100.019C99.8311 100.019 100.381 100.249 100.854 100.708C101.326 101.168 101.699 101.813 101.974 102.645C102.249 103.476 102.401 104.452 102.429 105.573H100.544C100.491 104.849 100.35 104.266 100.122 103.825C99.8969 103.378 99.6016 103.155 99.2356 103.155C98.9263 103.155 98.6557 103.325 98.4246 103.665C98.1968 103.999 98.0183 104.487 97.89 105.129C97.7617 105.771 97.6975 106.549 97.6975 107.462C97.6975 108.388 97.76 109.175 97.885 109.824C98.0133 110.472 98.1935 110.967 98.4246 111.307C98.6557 111.647 98.9263 111.817 99.2356 111.817C99.4643 111.817 99.6683 111.722 99.85 111.533C100.034 111.345 100.186 111.07 100.305 110.712C100.427 110.346 100.506 109.909 100.544 109.399H102.429C102.397 110.507 102.248 111.483 101.979 112.327C101.713 113.164 101.345 113.819 100.877 114.292C100.408 114.764 99.8533 115 99.2126 115ZM104.875 114.962C104.566 114.962 104.3 114.742 104.078 114.301C103.859 113.854 103.75 113.319 103.75 112.695C103.75 112.078 103.859 111.549 104.078 111.108C104.3 110.667 104.566 110.447 104.875 110.447C105.175 110.447 105.437 110.667 105.663 111.108C105.888 111.549 106 112.078 106 112.695C106 113.111 105.947 113.492 105.841 113.838C105.738 114.178 105.602 114.452 105.433 114.66C105.264 114.861 105.078 114.962 104.875 114.962Z" fill="#0094FF"/>
<path d="M84.7283 819.228C84.6606 818.789 84.5658 818.401 84.4438 818.064C84.3211 817.72 84.1712 817.432 83.9942 817.198C83.8207 816.957 83.6217 816.773 83.396 816.647C83.174 816.52 82.9279 816.457 82.6575 816.457C82.1524 816.457 81.7084 816.693 81.3254 817.161C80.9458 817.63 80.6498 818.314 80.4374 819.21C80.225 820.1 80.1188 821.19 80.1188 822.477C80.1188 823.766 80.2234 824.86 80.4326 825.763C80.6417 826.665 80.9377 827.356 81.3206 827.831C81.7036 828.299 82.1556 828.534 82.6769 828.534C83.1499 828.534 83.5539 828.379 83.8884 828.065C84.2262 827.747 84.4836 827.297 84.6606 826.721C84.8409 826.143 84.9307 825.459 84.9307 824.672L85.3557 824.789H82.8072V821.845H86.9433V824.175C86.9433 825.799 86.7604 827.196 86.3929 828.363C86.0263 829.525 85.5217 830.421 84.8782 831.053C84.2338 831.679 83.4972 831.992 82.6673 831.992C81.7406 831.992 80.9265 831.609 80.225 830.846C79.5236 830.074 78.9765 828.984 78.584 827.568C78.1947 826.149 78 824.464 78 822.513C78 821.015 78.1158 819.679 78.3475 818.506C78.5824 817.326 78.9105 816.328 79.3321 815.51C79.7536 814.691 80.2443 814.069 80.8042 813.641C81.364 813.214 81.9706 813 82.6238 813C83.1837 813 83.7047 813.154 84.1873 813.461C84.6699 813.762 85.0983 814.189 85.4717 814.742C85.8477 815.296 86.155 815.955 86.3929 816.72C86.6317 817.476 86.7841 818.314 86.8519 819.228H84.7283ZM88.5131 831.739V813.253H90.6036V828.516H94.8413V831.739H88.5131ZM98.3145 813.253V831.739H96.2249V813.253H98.3145ZM100.034 813.253H102.612L105.334 825.672H105.45L108.172 813.253H110.749V831.739H108.722V819.706H108.64L106.082 831.648H104.702L102.143 819.662H102.061V831.739H100.034V813.253ZM112.471 831.739V813.253H116.371C117.121 813.253 117.76 813.521 118.287 814.056C118.815 814.585 119.217 815.323 119.494 816.268C119.773 817.206 119.914 818.289 119.914 819.518C119.914 820.745 119.773 821.828 119.489 822.767C119.206 823.706 118.795 824.436 118.259 824.96C117.724 825.484 117.077 825.745 116.318 825.745H113.832V822.613H115.98C116.382 822.613 116.713 822.483 116.974 822.225C117.238 821.961 117.435 821.597 117.563 821.133C117.695 820.664 117.761 820.126 117.761 819.518C117.761 818.903 117.695 818.368 117.563 817.91C117.435 817.446 117.238 817.089 116.974 816.837C116.711 816.577 116.376 816.449 115.971 816.449H114.561V831.739H112.471ZM126.633 818.569C126.595 817.841 126.429 817.275 126.136 816.873C125.843 816.469 125.446 816.268 124.944 816.268C124.603 816.268 124.315 816.359 124.081 816.539C123.845 816.713 123.665 816.957 123.54 817.269C123.418 817.583 123.357 817.937 123.357 818.335C123.35 818.666 123.387 818.954 123.468 819.201C123.551 819.448 123.665 819.662 123.81 819.842C123.954 820.016 124.122 820.17 124.312 820.303C124.501 820.428 124.705 820.537 124.92 820.628L125.808 821.025C126.24 821.206 126.635 821.446 126.996 821.747C127.356 822.048 127.668 822.417 127.932 822.857C128.196 823.296 128.4 823.813 128.545 824.409C128.693 825.006 128.769 825.688 128.771 826.458C128.769 827.59 128.614 828.57 128.308 829.402C128.006 830.225 127.568 830.866 126.996 831.324C126.426 831.775 125.739 832 124.935 832C124.136 832 123.441 831.772 122.849 831.314C122.261 830.857 121.8 830.181 121.469 829.284C121.141 828.382 120.969 827.265 120.953 825.935H122.975C122.998 826.554 123.092 827.072 123.26 827.487C123.43 827.897 123.657 828.206 123.94 828.417C124.227 828.622 124.55 828.724 124.91 828.724C125.264 828.724 125.572 828.627 125.832 828.436C126.097 828.242 126.301 827.975 126.445 827.631C126.59 827.289 126.662 826.895 126.662 826.45C126.662 826.033 126.596 825.685 126.465 825.402C126.336 825.12 126.146 824.879 125.895 824.68C125.647 824.482 125.343 824.301 124.983 824.138L123.906 823.633C123.073 823.255 122.415 822.661 121.932 821.855C121.45 821.049 121.21 819.962 121.214 818.596C121.21 817.476 121.369 816.499 121.691 815.663C122.016 814.826 122.462 814.173 123.028 813.705C123.595 813.234 124.238 813 124.959 813C125.693 813 126.333 813.234 126.88 813.705C127.43 814.173 127.858 814.826 128.163 815.663C128.469 816.499 128.626 817.469 128.637 818.569H126.633ZM130.178 831.739V813.253H136.838V816.476H132.267V820.879H136.496V824.103H132.267V828.516H136.857V831.739H130.178ZM143.862 818.569C143.823 817.841 143.657 817.275 143.365 816.873C143.072 816.469 142.674 816.268 142.173 816.268C141.832 816.268 141.544 816.359 141.308 816.539C141.074 816.713 140.894 816.957 140.768 817.269C140.645 817.583 140.584 817.937 140.584 818.335C140.579 818.666 140.615 818.954 140.695 819.201C140.779 819.448 140.894 819.662 141.038 819.842C141.183 820.016 141.351 820.17 141.54 820.303C141.73 820.428 141.933 820.537 142.148 820.628L143.037 821.025C143.468 821.206 143.864 821.446 144.224 821.747C144.584 822.048 144.897 822.417 145.16 822.857C145.424 823.296 145.628 823.813 145.773 824.409C145.921 825.006 145.997 825.688 146 826.458C145.997 827.59 145.843 828.57 145.537 829.402C145.235 830.225 144.797 830.866 144.224 831.324C143.655 831.775 142.967 832 142.163 832C141.365 832 140.67 831.772 140.078 831.314C139.489 830.857 139.029 830.181 138.697 829.284C138.37 828.382 138.197 827.265 138.181 825.935H140.203C140.225 826.554 140.321 827.072 140.488 827.487C140.659 827.897 140.886 828.206 141.169 828.417C141.455 828.622 141.778 828.724 142.139 828.724C142.493 828.724 142.8 828.627 143.061 828.436C143.324 828.242 143.528 827.975 143.673 827.631C143.818 827.289 143.891 826.895 143.891 826.45C143.891 826.033 143.825 825.685 143.693 825.402C143.564 825.12 143.374 824.879 143.124 824.68C142.876 824.482 142.572 824.301 142.211 824.138L141.135 823.633C140.302 823.255 139.644 822.661 139.161 821.855C138.679 821.049 138.438 819.962 138.441 818.596C138.438 817.476 138.598 816.499 138.92 815.663C139.244 814.826 139.69 814.173 140.257 813.705C140.822 813.234 141.466 813 142.187 813C142.921 813 143.561 813.234 144.108 813.705C144.658 814.173 145.086 814.826 145.392 815.663C145.698 816.499 145.855 817.469 145.865 818.569H143.862Z" fill="white"/>
<defs>
<filter id="filter0_d_2947_202" x="20.0975" y="59.6673" width="600.457" height="789.355" filterUnits="userSpaceOnUse" color-interpolation-filters="sRGB">
<feFlood flood-opacity="0" result="BackgroundImageFix"/>
<feColorMatrix in="SourceAlpha" type="matrix" values="0 0 0 0 0 0 0 0 0 0 0 0 0 0 0 0 0 0 127 0" result="hardAlpha"/>
<feOffset/>
<feGaussianBlur stdDeviation="1.68173"/>
<feColorMatrix type="matrix" values="0 0 0 0 1 0 0 0 0 0 0 0 0 0 0.258824 0 0 0 1 0"/>
<feBlend mode="normal" in2="BackgroundImageFix" result="effect1_dropShadow_2947_202"/>
<feBlend mode="normal" in="SourceGraphic" in2="effect1_dropShadow_2947_202" result="shape"/>
</filter>
<filter id="filter1_d_2947_202" x="597.242" y="816.961" width="25.7211" height="43.3414" filterUnits="userSpaceOnUse" color-interpolation-filters="sRGB">
<feFlood flood-opacity="0" result="BackgroundImageFix"/>
<feColorMatrix in="SourceAlpha" type="matrix" values="0 0 0 0 0 0 0 0 0 0 0 0 0 0 0 0 0 0 127 0" result="hardAlpha"/>
<feOffset/>
<feGaussianBlur stdDeviation="1.68173"/>
<feColorMatrix type="matrix" values="0 0 0 0 1 0 0 0 0 0 0 0 0 0 0.258824 0 0 0 1 0"/>
<feBlend mode="normal" in2="BackgroundImageFix" result="effect1_dropShadow_2947_202"/>
<feBlend mode="normal" in="SourceGraphic" in2="effect1_dropShadow_2947_202" result="shape"/>
</filter>
<filter id="filter2_d_2947_202" x="21.0936" y="55.472" width="54.0023" height="92.8417" filterUnits="userSpaceOnUse" color-interpolation-filters="sRGB">
<feFlood flood-opacity="0" result="BackgroundImageFix"/>
<feColorMatrix in="SourceAlpha" type="matrix" values="0 0 0 0 0 0 0 0 0 0 0 0 0 0 0 0 0 0 127 0" result="hardAlpha"/>
<feOffset/>
<feGaussianBlur stdDeviation="1.68173"/>
<feColorMatrix type="matrix" values="0 0 0 0 1 0 0 0 0 0 0 0 0 0 0.258824 0 0 0 1 0"/>
<feBlend mode="normal" in2="BackgroundImageFix" result="effect1_dropShadow_2947_202"/>
<feBlend mode="normal" in="SourceGraphic" in2="effect1_dropShadow_2947_202" result="shape"/>
</filter>
</defs>
</svg>
